<?xml version="1.0" encoding="UTF-8" standalone="no"?>
<!-- Created with Inkscape (http://www.inkscape.org/) -->

<svg
   xmlns:dc="http://purl.org/dc/elements/1.1/"
   xmlns:cc="http://creativecommons.org/ns#"
   xmlns:rdf="http://www.w3.org/1999/02/22-rdf-syntax-ns#"
   xmlns:svg="http://www.w3.org/2000/svg"
   xmlns="http://www.w3.org/2000/svg"
   xmlns:sodipodi="http://sodipodi.sourceforge.net/DTD/sodipodi-0.dtd"
   xmlns:inkscape="http://www.inkscape.org/namespaces/inkscape"
   width="105.83334mm"
   height="60.055161mm"
   viewBox="0 0 375.00001 212.79387"
   id="svg3568"
   version="1.1"
   inkscape:version="0.91 r13725"
   sodipodi:docname="dynamicNfc.svg">
  <defs
     id="defs3570">
    <clipPath
       id="clipPath3590"
       clipPathUnits="userSpaceOnUse">
      <path
         inkscape:connector-curvature="0"
         id="path3592"
         d="m 0,145.278 236.065,0 L 236.065,0 0,0 0,145.278 Z" />
    </clipPath>
    <clipPath
       id="clipPath3762"
       clipPathUnits="userSpaceOnUse">
      <path
         inkscape:connector-curvature="0"
         id="path3764"
         d="m 0,145.278 236.065,0 L 236.065,0 0,0 0,145.278 Z" />
    </clipPath>
  </defs>
  <sodipodi:namedview
     id="base"
     pagecolor="#ffffff"
     bordercolor="#666666"
     borderopacity="1.0"
     inkscape:pageopacity="0.0"
     inkscape:pageshadow="2"
     inkscape:zoom="1.4"
     inkscape:cx="199.86604"
     inkscape:cy="24.442877"
     inkscape:document-units="px"
     inkscape:current-layer="g3584"
     showgrid="false"
     fit-margin-top="0"
     fit-margin-left="0"
     fit-margin-right="0"
     fit-margin-bottom="0"
     inkscape:window-width="1280"
     inkscape:window-height="962"
     inkscape:window-x="-8"
     inkscape:window-y="-8"
     inkscape:window-maximized="1" />
  <metadata
     id="metadata3573">
    <rdf:RDF>
      <cc:Work
         rdf:about="">
        <dc:format>image/svg+xml</dc:format>
        <dc:type
           rdf:resource="http://purl.org/dc/dcmitype/StillImage" />
        <dc:title></dc:title>
      </cc:Work>
    </rdf:RDF>
  </metadata>
  <g
     inkscape:label="Layer 1"
     inkscape:groupmode="layer"
     id="layer1"
     transform="translate(-252.88154,-446.7583)">
    <g
       transform="matrix(1.6916638,0,0,-1.6916638,239.61974,679.3888)"
       inkscape:label="RS6440_ST25_module (1)"
       id="g3584">
      <g
         id="g3586">
        <g
           clip-path="url(#clipPath3590)"
           id="g3588">
          <g
             transform="translate(94.915,60.2334)"
             id="g3594">
            <path
               inkscape:connector-curvature="0"
               id="path3596"
               style="fill:none;stroke:#2b334f;stroke-width:0.579;stroke-linecap:butt;stroke-linejoin:miter;stroke-miterlimit:10;stroke-dasharray:none;stroke-opacity:1"
               d="M 0,0 C 0,0 11.304,52.945 30.361,0 49.417,-52.942 54.817,-45.648 72.453,-6.211" />
          </g>
          <g
             transform="translate(189.6006,92.5762)"
             id="g3598">
            <path
               inkscape:connector-curvature="0"
               id="path3600"
               style="fill:none;stroke:#2b334f;stroke-width:0.54799998;stroke-linecap:butt;stroke-linejoin:miter;stroke-miterlimit:10;stroke-dasharray:none;stroke-opacity:1"
               d="M 0,0 -17.679,16.406" />
          </g>
          <g
             transform="translate(178.9521,81.376)"
             id="g3602">
            <path
               inkscape:connector-curvature="0"
               id="path3604"
               style="fill:#2b334f;fill-opacity:1;fill-rule:nonzero;stroke:none"
               d="m 0,0 c -4.556,0 -8.249,3.694 -8.249,8.251 0,4.556 3.693,8.249 8.249,8.249 4.558,0 8.252,-3.693 8.252,-8.249 C 8.252,3.694 4.558,0 0,0" />
          </g>
          <g
             transform="translate(196.9453,124.874)"
             id="g3606">
            <path
               inkscape:connector-curvature="0"
               id="path3608"
               style="fill:none;stroke:#b6cd1e;stroke-width:0.91299999;stroke-linecap:butt;stroke-linejoin:miter;stroke-miterlimit:10;stroke-dasharray:none;stroke-opacity:1"
               d="m 0,0 c 3.125,1.769 6.735,2.777 10.581,2.777 11.523,0 20.93,-9.047 21.506,-20.423 0.015,-0.29 0.022,-0.581 0.026,-0.872" />
          </g>
          <g
             transform="translate(228.9678,105.8779)"
             id="g3610">
            <path
               inkscape:connector-curvature="0"
               id="path3612"
               style="fill:none;stroke:#e72c80;stroke-width:0.91299999;stroke-linecap:butt;stroke-linejoin:miter;stroke-miterlimit:10;stroke-dasharray:none;stroke-opacity:1"
               d="m 0,0 c -0.004,-0.291 -0.01,-0.582 -0.025,-0.87 -0.556,-10.963 -9.348,-19.751 -20.312,-20.307 -0.364,-0.02 -0.733,-0.029 -1.103,-0.029 -0.373,0 -0.74,0.009 -1.105,0.029 -3.415,0.173 -6.618,1.147 -9.429,2.735" />
          </g>
          <g
             transform="translate(191.2275,96.9014)"
             id="g3614">
            <path
               inkscape:connector-curvature="0"
               id="path3616"
               style="fill:none;stroke:#00acdf;stroke-width:0.579;stroke-linecap:butt;stroke-linejoin:miter;stroke-miterlimit:10;stroke-dasharray:none;stroke-opacity:1"
               d="m 0,0 c -1.515,2.679 -2.381,5.774 -2.381,9.073 0,9.877 7.757,17.944 17.511,18.439 0.247,0.011 0.499,0.018 0.748,0.021 m -0.043,0.013 c 0.253,-0.002 0.505,-0.009 0.755,-0.023 9.478,-0.479 17.08,-8.08 17.558,-17.56 0.018,-0.317 0.026,-0.634 0.026,-0.954 0,-0.321 -0.008,-0.639 -0.026,-0.955 -0.149,-2.953 -0.991,-5.721 -2.363,-8.152" />
          </g>
          <g
             transform="translate(228.085,84.1201)"
             id="g3618">
            <path
               inkscape:connector-curvature="0"
               id="path3620"
               style="fill:#b6cd1e;fill-opacity:1;fill-rule:nonzero;stroke:none"
               d="M 0,0 -4.466,-7.897 -4.901,0.439 0,0 Z" />
          </g>
          <g
             transform="translate(201.0039,65.1143)"
             id="g3622">
            <path
               inkscape:connector-curvature="0"
               id="path3624"
               style="fill:#2b334f;fill-opacity:1;fill-rule:nonzero;stroke:none"
               d="m 0,0 0,9.351 c 0,0 -0.002,3.09 -2.621,4.033 0.011,-0.13 0.014,-0.213 0.014,-0.213 l 0,-0.451 c 0,-3.182 -3.184,-3.182 -3.184,-3.182 l -3.906,0.043 c 0,0 -0.096,-0.002 -0.245,-0.021 -0.014,10e-4 -0.028,10e-4 -0.04,0.003 0,-0.003 -7.71,-0.006 -7.71,-0.009 -0.605,-0.086 -1.983,-0.473 -1.983,-2.243 l 0,-9.347 c 0,0 0,-2.27 2.271,-2.27 l 13.098,0 c 0,0 4.306,0 4.306,4.306" />
          </g>
          <g
             transform="translate(179.9551,55.8115)"
             id="g3626">
            <path
               inkscape:connector-curvature="0"
               id="path3628"
               style="fill:#2b334f;fill-opacity:1;fill-rule:nonzero;stroke:none"
               d="m 0,0 c -7.595,0 -13.751,6.154 -13.751,13.75 0,7.592 6.156,13.75 13.751,13.75 7.594,0 13.748,-6.158 13.748,-13.75 C 13.748,6.154 7.594,0 0,0" />
          </g>
          <g
             transform="translate(172.2041,69.1846)"
             id="g3630">
            <path
               inkscape:connector-curvature="0"
               id="path3632"
               style="fill:#2b334f;fill-opacity:1;fill-rule:nonzero;stroke:none"
               d="m 0,0 c -6.179,0 -11.188,5.01 -11.188,11.188 0,6.18 5.009,11.189 11.188,11.189 6.179,0 11.188,-5.009 11.188,-11.189 C 11.188,5.01 6.179,0 0,0" />
          </g>
          <g
             transform="translate(166.3906,49.623)"
             id="g3634">
            <path
               inkscape:connector-curvature="0"
               id="path3636"
               style="fill:#2b334f;fill-opacity:1;fill-rule:nonzero;stroke:none"
               d="m 0,0 c -8.456,0 -15.313,6.854 -15.313,15.313 0,8.457 6.857,15.314 15.313,15.314 8.458,0 15.314,-6.857 15.314,-15.314 C 15.314,6.854 8.458,0 0,0" />
          </g>
          <g
             transform="translate(166.3906,52.3711)"
             id="g3638">
            <path
               inkscape:connector-curvature="0"
               id="path3640"
               style="fill:#ffffff;fill-opacity:1;fill-rule:nonzero;stroke:none"
               d="m 0,0 c -6.938,0 -12.563,5.626 -12.563,12.565 0,6.939 5.625,12.563 12.563,12.563 6.939,0 12.563,-5.624 12.563,-12.563 C 12.563,5.626 6.939,0 0,0" />
          </g>
          <g
             transform="translate(219.5645,89.1689)"
             id="g3642">
            <path
               inkscape:connector-curvature="0"
               id="path3644"
               style="fill:#e72c80;fill-opacity:1;fill-rule:nonzero;stroke:none"
               d="m 0,0 c 0,-11.104 -9.003,-20.104 -20.104,-20.104 -11.104,0 -20.105,9 -20.105,20.104 0,11.102 9.001,20.104 20.105,20.104 C -9.003,20.104 0,11.102 0,0" />
          </g>
          <g
             transform="translate(220.4512,102.2969)"
             id="g3646">
            <path
               inkscape:connector-curvature="0"
               id="path3648"
               style="fill:#ffffff;fill-opacity:1;fill-rule:nonzero;stroke:#e72c80;stroke-width:1.43299997;stroke-linecap:butt;stroke-linejoin:miter;stroke-miterlimit:10;stroke-dasharray:none;stroke-opacity:1"
               d="m 0,0 c 0,-7.409 -6.007,-13.418 -13.417,-13.418 -7.41,0 -13.416,6.009 -13.416,13.418 0,7.408 6.006,13.415 13.416,13.415 C -6.007,13.415 0,7.408 0,0" />
          </g>
          <g
             transform="translate(154.3594,83.3672)"
             id="g3650">
            <path
               inkscape:connector-curvature="0"
               id="path3652"
               style="fill:#e72c80;fill-opacity:1;fill-rule:nonzero;stroke:none"
               d="M 0,0 -4.154,-7.353 -4.561,0.409 0,0 Z" />
          </g>
          <g
             transform="translate(175.6816,81.9102)"
             id="g3654">
            <path
               inkscape:connector-curvature="0"
               id="path3656"
               style="fill:#00acdf;fill-opacity:1;fill-rule:nonzero;stroke:none"
               d="m 0,0 c -0.296,0.315 -0.493,0.503 -0.591,0.557 l -0.937,0.363 -0.066,0 c -0.066,0 -0.12,-0.062 -0.164,-0.182 0,0 -0.844,-0.167 -0.328,-0.64 0.316,-0.208 0.535,-0.454 0.655,-0.74 0.067,0 0.122,-0.345 0.164,-1.036 -0.009,-0.164 -0.092,-0.394 -0.245,-0.689 -0.066,-0.056 -0.115,-0.122 -0.148,-0.198 -0.087,-0.306 -0.208,-0.504 -0.361,-0.592 -0.099,-0.186 -0.181,-0.416 -0.247,-0.69 0,-0.088 -0.038,-0.131 -0.116,-0.131 -0.504,-0.144 -0.817,-0.269 -0.935,-0.378 -0.143,-0.175 -0.8,-0.308 -1.973,-0.395 l -0.019,0 c 0.036,0.252 0.068,0.416 0.101,0.493 l -0.033,0.197 c 0.153,0.121 0.23,0.202 0.23,0.248 L -5.046,-3.7 c -0.108,0.133 -0.164,0.225 -0.164,0.281 l 0,0.082 0.017,0.148 -0.165,0.624 0,0.017 0.229,-0.115 c -0.142,0.372 -0.311,0.559 -0.509,0.559 l 0,0.032 c 0.077,0.088 0.116,0.153 0.116,0.197 -0.426,0.143 -0.761,0.214 -1.002,0.214 l 0,0.016 c 0.021,0 0.108,0.055 0.262,0.166 l 0,0.015 -0.443,-0.015 -0.543,-0.132 -0.017,0 -0.245,0.066 -0.084,0 c -0.142,0 -0.291,-0.052 -0.443,-0.148 0.044,-0.055 0.066,-0.11 0.066,-0.164 0,-0.089 -0.093,-0.164 -0.281,-0.232 -0.219,-0.12 -0.383,-0.328 -0.492,-0.625 l 0,-0.015 0.297,0.099 0.015,0 c -0.077,-0.11 -0.115,-0.268 -0.115,-0.477 0,-0.527 0.121,-1.195 0.361,-2.006 l -0.082,-0.361 c -0.373,-0.449 -0.591,-0.767 -0.657,-0.954 -0.088,-0.262 -0.368,-0.613 -0.839,-1.052 -0.219,-0.218 -0.388,-0.33 -0.509,-0.33 -0.196,0 -0.456,0.122 -0.772,0.363 0,0.021 -0.444,0.077 -1.333,0.164 l -0.016,0 c -0.185,0 -0.477,-0.136 -0.87,-0.411 -0.372,-0.077 -0.636,-0.141 -0.789,-0.197 -0.45,-0.306 -0.675,-0.531 -0.675,-0.673 l 0,-0.133 c 0.101,-0.262 0.205,-0.394 0.314,-0.394 0.042,0 0.121,0.039 0.229,0.116 0,-0.099 0.039,-0.147 0.116,-0.147 l 0.099,0 0.164,0.031 c 0.427,0.188 0.667,0.28 0.723,0.28 l 0.082,0 c 0.076,0 0.203,-0.028 0.378,-0.082 l 1.265,-0.558 c 0.547,-0.286 1.152,-0.429 1.809,-0.429 l 0.148,0.016 0.13,-0.296 c 0.276,-0.558 0.532,-0.936 0.775,-1.132 0.295,-0.145 0.492,-0.85 0.592,-2.121 0,-0.373 0.179,-0.691 0.541,-0.953 l 0,-0.165 c 0,-0.198 -0.05,-0.373 -0.147,-0.527 -0.341,-0.525 -0.539,-1.123 -0.594,-1.79 0,-0.165 0.04,-0.372 0.118,-0.625 0.25,-0.602 0.377,-1.009 0.377,-1.215 l 0,-0.017 c 0,-0.274 -0.27,-1.035 -0.807,-2.286 -0.142,0 -0.719,0.291 -1.726,0.872 -0.219,0.348 -0.547,0.762 -0.985,1.231 -0.231,0.286 -0.729,0.512 -1.496,0.676 l -0.346,0.723 c -0.427,0.341 -0.744,0.508 -0.952,0.508 -0.23,0 -0.533,-0.368 -0.904,-1.1 l 0.113,-0.38 c -0.449,-0.217 -0.913,-0.656 -1.394,-1.314 -0.243,-0.404 -0.363,-0.788 -0.363,-1.15 l 0,-0.032 c 0,-0.121 0.072,-0.182 0.214,-0.182 l 0.017,0 c 0.065,0 0.141,0.01 0.229,0.034 0.056,0 0.143,0.098 0.263,0.296 0.297,0.286 0.564,0.492 0.805,0.624 0,0.042 0.483,0.169 1.446,0.378 0.428,0 1.019,-0.464 1.776,-1.398 0.592,-0.732 1.337,-1.557 2.236,-2.464 0.833,-0.713 1.462,-1.07 1.889,-1.07 l 0.806,-1.346 c 0.46,-0.473 0.854,-0.707 1.184,-0.707 l 0.016,0 c 0.12,0 0.195,0.087 0.23,0.262 0,0.076 -0.039,0.19 -0.117,0.345 -0.184,0.286 -0.277,0.635 -0.277,1.052 l 0,0.098 c 0,0.331 0.059,0.669 0.182,1.018 0,0.145 0.102,0.296 0.31,0.46 0.614,0.518 1.211,0.972 1.792,1.366 0.121,0.109 0.645,0.357 1.578,0.741 0.132,0.088 0.383,0.147 0.756,0.18 l 0.723,0.494 c 0.395,0.173 0.757,0.4 1.085,0.673 0.274,0.296 0.422,0.579 0.445,0.856 0,0.15 -0.083,0.331 -0.247,0.542 -0.472,0.493 -0.79,0.838 -0.954,1.033 -0.832,0.78 -1.736,1.547 -2.712,2.303 l 0.033,0.245 c 0,0.286 -0.078,0.598 -0.23,0.938 l 0.197,0.806 c 0.252,0.604 0.378,0.979 0.378,1.135 l 0,0.031 c 0,0.341 -0.285,1.316 -0.855,2.928 -0.043,0 -0.143,0.596 -0.295,1.791 l 1.791,1.017 c 0.526,0.263 0.974,0.668 1.348,1.217 0.055,0.111 0.202,0.51 0.445,1.2 0.207,0.459 0.311,0.761 0.311,0.904 l 0,0.18 -0.28,2.236 m -4.012,-18.046 c 0.286,-0.045 0.544,-0.192 0.775,-0.443 l 0,-0.017 -1.134,-0.232 0.048,0.755 0.311,-0.063 z" />
          </g>
          <g
             transform="translate(204.9443,55.3271)"
             id="g3658">
            <path
               inkscape:connector-curvature="0"
               id="path3660"
               style="fill:#2b334f;fill-opacity:1;fill-rule:nonzero;stroke:none"
               d="m 0,0 c -0.297,-0.625 -0.885,-1.092 -1.615,-1.199 -1.166,-0.168 -2.248,0.645 -2.418,1.82 -0.148,1.014 0.432,1.962 1.342,2.311 l -0.01,0.015 c 0,0 2.82,0.561 3.639,3.556 C 0.938,6.503 1.12,2.027 0,0" />
          </g>
          <g
             transform="translate(170.7178,121.4189)"
             id="g3662">
            <path
               inkscape:connector-curvature="0"
               id="path3664"
               style="fill:#b6cd1e;fill-opacity:1;fill-rule:nonzero;stroke:none"
               d="m 0,0 c 0,-6.354 -5.151,-11.505 -11.504,-11.505 -6.354,0 -11.506,5.151 -11.506,11.505 0,6.354 5.152,11.507 11.506,11.507 C -5.151,11.507 0,6.354 0,0" />
          </g>
          <g
             transform="translate(154.7285,135.8428)"
             id="g3666">
            <path
               inkscape:connector-curvature="0"
               id="path3668"
               style="fill:#2b334f;fill-opacity:1;fill-rule:nonzero;stroke:none"
               d="m 0,0 c -4.979,-1.794 -8.916,-6.087 -9.998,-11.66 -1.086,-5.579 0.963,-11.041 4.918,-14.57 l -1.176,-1.332 c -4.411,3.932 -6.694,10.021 -5.485,16.242 1.207,6.209 5.593,10.991 11.139,12.993 L 0,0 Z" />
          </g>
          <g
             transform="translate(175.207,118.0771)"
             id="g3670">
            <path
               inkscape:connector-curvature="0"
               id="path3672"
               style="fill:#00acdf;fill-opacity:1;fill-rule:nonzero;stroke:none"
               d="M 0,0 1.74,-0.347 C 1.692,-0.578 1.642,-0.808 1.587,-1.035 c -2.131,-8.607 -10.455,-14.22 -19.233,-12.973 -0.293,0.042 -0.584,0.093 -0.88,0.149 -0.292,0.056 -0.583,0.123 -0.87,0.192 -2.68,0.665 -5.07,1.931 -7.051,3.622 l 1.175,1.331 c 1.965,-1.669 4.375,-2.876 7.085,-3.403 C -9.818,-13.743 -1.715,-8.327 0,0" />
          </g>
          <g
             transform="translate(172.957,118.541)"
             id="g3674">
            <path
               inkscape:connector-curvature="0"
               id="path3676"
               style="fill:#b6cd1e;fill-opacity:1;fill-rule:nonzero;stroke:none"
               d="m 0,0 1.482,-0.297 c -0.04,-0.196 -0.083,-0.391 -0.13,-0.585 -1.816,-7.334 -8.91,-12.119 -16.389,-11.055 -0.249,0.036 -0.499,0.078 -0.75,0.126 -0.25,0.049 -0.496,0.104 -0.742,0.165 -2.284,0.565 -4.321,1.643 -6.01,3.084 l 1.001,1.136 c 1.677,-1.423 3.728,-2.45 6.039,-2.898 C -8.367,-11.712 -1.462,-7.096 0,0" />
          </g>
          <g
             transform="translate(201.0186,106.6836)"
             id="g3678">
            <path
               inkscape:connector-curvature="0"
               id="path3680"
               style="fill:#00acdf;fill-opacity:1;fill-rule:nonzero;stroke:none"
               d="m 0,0 c 2.017,-0.26 3.818,-0.979 5.411,-2.156 1.59,-1.179 2.79,-2.663 3.6,-4.452 0.809,-1.788 1.107,-3.676 0.899,-5.661 -0.012,-0.11 -0.022,-0.22 -0.034,-0.33 l 3.145,-0.426 c 0.015,0.157 0.032,0.299 0.044,0.425 0.199,1.89 0.018,3.732 -0.544,5.528 -0.561,1.795 -1.407,3.388 -2.54,4.78 C 8.853,-0.899 7.454,0.274 5.793,1.229 4.128,2.186 2.339,2.796 0.422,3.061 L 0,0 Z" />
          </g>
          <g
             transform="translate(200.4795,101.3174)"
             id="g3682">
            <path
               inkscape:connector-curvature="0"
               id="path3684"
               style="fill:#00acdf;fill-opacity:1;fill-rule:nonzero;stroke:none"
               d="M 0,0 C 1.557,-0.243 2.815,-0.972 3.775,-2.188 4.734,-3.404 5.133,-4.781 4.974,-6.327 4.962,-6.421 4.951,-6.516 4.942,-6.609 L 8.079,-7.106 C 8.111,-6.967 8.136,-6.817 8.151,-6.66 8.313,-5.116 8.08,-3.644 7.455,-2.237 6.825,-0.836 5.898,0.336 4.67,1.277 3.442,2.218 2.041,2.811 0.468,3.056 L 0,0 Z" />
          </g>
          <g
             transform="translate(199.3252,97.1641)"
             id="g3686">
            <path
               inkscape:connector-curvature="0"
               id="path3688"
               style="fill:#00acdf;fill-opacity:1;fill-rule:nonzero;stroke:none"
               d="m 0,0 c -0.052,-0.52 0.09,-0.985 0.435,-1.396 0.343,-0.412 0.786,-0.642 1.322,-0.701 0.539,-0.055 1.019,0.081 1.44,0.41 0.424,0.332 0.662,0.754 0.715,1.276 C 3.968,0.107 3.824,0.573 3.479,0.982 3.134,1.394 2.693,1.626 2.155,1.684 1.616,1.739 1.139,1.604 0.715,1.273 0.294,0.942 0.055,0.52 0,0" />
          </g>
          <g
             transform="translate(161.0059,129.2598)"
             id="g3690">
            <path
               inkscape:connector-curvature="0"
               id="path3692"
               style="fill:#ffffff;fill-opacity:1;fill-rule:nonzero;stroke:none"
               d="m 0,0 0,-0.356 c 0,-0.036 0.005,-0.069 0.015,-0.102 l 5.011,0 c 0.007,0.033 0.013,0.066 0.013,0.102 l 0,0.356 c 0,0.264 -0.28,0.479 -0.622,0.479 l -3.793,0 C 0.28,0.479 0,0.264 0,0" />
          </g>
          <g
             transform="translate(152.1963,129.2598)"
             id="g3694">
            <path
               inkscape:connector-curvature="0"
               id="path3696"
               style="fill:#ffffff;fill-opacity:1;fill-rule:nonzero;stroke:none"
               d="m 0,0 0,-0.356 c 0,-0.036 0.005,-0.069 0.018,-0.102 l 5.008,0 c 0.011,0.033 0.015,0.066 0.015,0.102 l 0,0.356 c 0,0.264 -0.28,0.479 -0.624,0.479 l -3.793,0 C 0.281,0.479 0,0.264 0,0" />
          </g>
          <g
             transform="translate(166.8701,118.2236)"
             id="g3698">
            <path
               inkscape:connector-curvature="0"
               id="path3700"
               style="fill:#ffffff;fill-opacity:1;fill-rule:nonzero;stroke:none"
               d="m 0,0 c 0,-0.192 -0.158,-0.351 -0.351,-0.351 l -5.794,0 c -0.194,0 -0.35,0.159 -0.35,0.351 l 0,1.968 c 0,0.194 0.156,0.352 0.35,0.352 l 5.794,0 C -0.158,2.32 0,2.162 0,1.968 L 0,0 Z m 0,-3.325 c 0,-0.194 -0.158,-0.35 -0.351,-0.35 l -5.794,0 c -0.194,0 -0.35,0.156 -0.35,0.35 l 0,1.971 c 0,0.193 0.156,0.351 0.35,0.351 l 5.794,0 C -0.158,-1.003 0,-1.161 0,-1.354 l 0,-1.971 z m -0.116,13.684 -6.427,0 c -0.302,0 -0.543,-0.241 -0.543,-0.543 l 0,-14.072 c 0,-0.299 0.241,-0.543 0.543,-0.543 l 6.427,0 c 0.301,0 0.544,0.244 0.544,0.543 l 0,14.072 c 0,0.302 -0.243,0.543 -0.544,0.543" />
          </g>
          <g
             transform="translate(158.0459,118.2236)"
             id="g3702">
            <path
               inkscape:connector-curvature="0"
               id="path3704"
               style="fill:#ffffff;fill-opacity:1;fill-rule:nonzero;stroke:none"
               d="m 0,0 c 0,-0.192 -0.159,-0.351 -0.352,-0.351 l -5.794,0 c -0.194,0 -0.348,0.159 -0.348,0.351 l 0,1.968 c 0,0.194 0.154,0.352 0.348,0.352 l 5.794,0 C -0.159,2.32 0,2.162 0,1.968 L 0,0 Z m 0,-3.325 c 0,-0.194 -0.159,-0.35 -0.352,-0.35 l -5.794,0 c -0.194,0 -0.348,0.156 -0.348,0.35 l 0,1.971 c 0,0.193 0.154,0.351 0.348,0.351 l 5.794,0 C -0.159,-1.003 0,-1.161 0,-1.354 l 0,-1.971 z m -6.576,6.682 0,1.969 c 0,0.194 0.156,0.351 0.348,0.351 l 5.796,0 c 0.194,0 0.35,-0.157 0.35,-0.351 l 0,-1.969 c 0,-0.193 -0.156,-0.352 -0.35,-0.352 l -5.796,0 c -0.192,0 -0.348,0.159 -0.348,0.352 m 6.461,7.002 -6.428,0 c -0.301,0 -0.543,-0.241 -0.543,-0.543 l 0,-14.072 c 0,-0.299 0.242,-0.543 0.543,-0.543 l 6.428,0 c 0.301,0 0.543,0.244 0.543,0.543 l 0,14.072 c 0,0.302 -0.242,0.543 -0.543,0.543" />
          </g>
          <g
             transform="translate(187.5889,83.7881)"
             id="g3706">
            <path
               inkscape:connector-curvature="0"
               id="path3708"
               style="fill:#ffffff;fill-opacity:1;fill-rule:nonzero;stroke:none"
               d="M 0,0 C 0.823,0 1.489,0.704 1.489,1.571 1.489,2.439 0.823,3.145 0,3.145 -0.821,3.145 -1.489,2.439 -1.489,1.571 -1.489,0.704 -0.821,0 0,0" />
          </g>
          <g
             transform="translate(187.5889,83.1064)"
             id="g3710">
            <path
               inkscape:connector-curvature="0"
               id="path3712"
               style="fill:#ffffff;fill-opacity:1;fill-rule:nonzero;stroke:none"
               d="M 0,0 C 1.177,0 2.135,1.012 2.135,2.253 2.135,3.495 1.177,4.506 0,4.506 -1.177,4.506 -2.133,3.495 -2.133,2.253 -2.133,1.012 -1.177,0 0,0 m 0,4.212 c 1.022,0 1.855,-0.878 1.855,-1.959 0,-1.08 -0.833,-1.958 -1.855,-1.958 -1.024,0 -1.854,0.878 -1.854,1.958 0,1.081 0.83,1.959 1.854,1.959" />
          </g>
          <g
             transform="translate(188.9834,81.7607)"
             id="g3714">
            <path
               inkscape:connector-curvature="0"
               id="path3716"
               style="fill:#ffffff;fill-opacity:1;fill-rule:nonzero;stroke:none"
               d="m 0,0 c -0.672,0 -1.219,-0.576 -1.219,-1.285 0,-0.713 0.547,-1.289 1.219,-1.289 0.672,0 1.219,0.576 1.219,1.289 C 1.219,-0.576 0.672,0 0,0" />
          </g>
          <g
             transform="translate(185.6123,77.666)"
             id="g3718">
            <path
               inkscape:connector-curvature="0"
               id="path3720"
               style="fill:#ffffff;fill-opacity:1;fill-rule:nonzero;stroke:none"
               d="m 0,0 4.572,0 c 0.595,0 1.073,0.506 1.073,1.132 l 0,8.915 c 0,0.624 -0.478,1.134 -1.073,1.134 l -4.572,0 c -0.592,0 -1.071,-0.51 -1.071,-1.134 l 0,-8.915 C -1.071,0.506 -0.592,0 0,0 M 4.829,2.809 C 4.829,1.957 4.178,1.27 3.371,1.27 c -0.805,0 -1.458,0.687 -1.458,1.539 0,0.85 0.653,1.54 1.458,1.54 0.807,0 1.458,-0.69 1.458,-1.54 m -2.851,7.529 c 1.382,0 2.503,-1.185 2.503,-2.645 0,-1.459 -1.121,-2.643 -2.503,-2.643 -1.384,0 -2.506,1.184 -2.506,2.643 0,1.46 1.122,2.645 2.506,2.645" />
          </g>
          <g
             transform="translate(196.7607,83.7881)"
             id="g3722">
            <path
               inkscape:connector-curvature="0"
               id="path3724"
               style="fill:#ffffff;fill-opacity:1;fill-rule:nonzero;stroke:none"
               d="M 0,0 C 0.822,0 1.489,0.704 1.489,1.571 1.489,2.439 0.822,3.145 0,3.145 -0.822,3.145 -1.488,2.439 -1.488,1.571 -1.488,0.704 -0.822,0 0,0" />
          </g>
          <g
             transform="translate(196.7607,83.1064)"
             id="g3726">
            <path
               inkscape:connector-curvature="0"
               id="path3728"
               style="fill:#ffffff;fill-opacity:1;fill-rule:nonzero;stroke:none"
               d="M 0,0 C 1.178,0 2.134,1.012 2.134,2.253 2.134,3.495 1.178,4.506 0,4.506 -1.176,4.506 -2.134,3.495 -2.134,2.253 -2.134,1.012 -1.176,0 0,0 m 0,4.212 c 1.024,0 1.855,-0.878 1.855,-1.959 0,-1.08 -0.831,-1.958 -1.855,-1.958 -1.023,0 -1.855,0.878 -1.855,1.958 0,1.081 0.832,1.959 1.855,1.959" />
          </g>
          <g
             transform="translate(195.3672,79.1865)"
             id="g3730">
            <path
               inkscape:connector-curvature="0"
               id="path3732"
               style="fill:#ffffff;fill-opacity:1;fill-rule:nonzero;stroke:none"
               d="M 0,0 C 0.671,0 1.217,0.576 1.217,1.288 1.217,1.998 0.671,2.574 0,2.574 -0.675,2.574 -1.219,1.998 -1.219,1.288 -1.219,0.576 -0.675,0 0,0" />
          </g>
          <g
             transform="translate(194.165,77.666)"
             id="g3734">
            <path
               inkscape:connector-curvature="0"
               id="path3736"
               style="fill:#ffffff;fill-opacity:1;fill-rule:nonzero;stroke:none"
               d="m 0,0 4.572,0 c 0.593,0 1.073,0.506 1.073,1.132 l 0,8.915 c 0,0.625 -0.48,1.133 -1.073,1.133 L 0,11.18 c -0.593,0 -1.073,-0.508 -1.073,-1.133 l 0,-8.915 C -1.073,0.506 -0.593,0 0,0 m 2.596,10.338 c 1.383,0 2.505,-1.185 2.505,-2.645 0,-1.459 -1.122,-2.642 -2.505,-2.642 -1.383,0 -2.505,1.183 -2.505,2.642 0,1.46 1.122,2.645 2.505,2.645 M 1.202,4.349 C 2.008,4.349 2.66,3.658 2.66,2.81 2.66,1.957 2.008,1.269 1.202,1.269 c -0.806,0 -1.46,0.688 -1.46,1.541 0,0.848 0.654,1.539 1.46,1.539" />
          </g>
          <g
             transform="translate(190.6084,75.375)"
             id="g3738">
            <path
               inkscape:connector-curvature="0"
               id="path3740"
               style="fill:#ffffff;fill-opacity:1;fill-rule:nonzero;stroke:none"
               d="m 0,0 c 0,0.104 -0.01,0.158 -0.081,0.158 l -0.041,0 0,-0.327 0.043,0 C -0.013,-0.169 0,-0.127 0,0" />
          </g>
          <g
             transform="translate(193.376,75.3584)"
             id="g3742">
            <path
               inkscape:connector-curvature="0"
               id="path3744"
               style="fill:#ffffff;fill-opacity:1;fill-rule:nonzero;stroke:none"
               d="M 0,0 C 0.036,0 0.051,0.023 0.051,0.089 0.051,0.141 0.043,0.18 0,0.18 -0.046,0.18 -0.051,0.141 -0.051,0.089 -0.051,0.023 -0.036,0 0,0" />
          </g>
          <g
             transform="translate(201.9795,76.9844)"
             id="g3746">
            <path
               inkscape:connector-curvature="0"
               id="path3748"
               style="fill:#ffffff;fill-opacity:1;fill-rule:nonzero;stroke:none"
               d="m 0,0 -20.841,0 -1.394,-0.143 0.029,-5.089 c 0.285,-0.115 1.195,-0.058 1.195,-0.058 l 0.028,-0.625 2.587,-0.028 0.056,0.626 15.922,0.027 0.03,-0.625 2.53,0.03 0.029,0.568 c 0.626,0 1.251,0.139 1.251,0.139 L 1.508,-0.2 0,0 Z m -7.82,-1.447 c -0.047,0 -0.05,-0.04 -0.052,-0.09 l -0.09,0 0,0.017 c 0,0.087 0.044,0.136 0.142,0.136 0.093,0 0.139,-0.047 0.139,-0.128 0,-0.059 -0.018,-0.097 -0.071,-0.145 l -0.052,-0.05 c -0.027,-0.024 -0.044,-0.05 -0.048,-0.067 l 0.174,0 0,-0.075 -0.284,0 c 0,0.082 0.033,0.14 0.101,0.203 l 0.039,0.037 c 0.041,0.036 0.048,0.056 0.048,0.104 0,0.039 -0.016,0.058 -0.046,0.058 m -0.589,-0.06 0.087,0 0,-0.104 -0.087,0 0,0.104 z m 0,-0.239 0.087,0 0,-0.103 -0.087,0 0,0.103 z m -0.192,0.361 c 0.131,0 0.147,-0.103 0.147,-0.218 0,-0.129 -10e-4,-0.254 -0.155,-0.254 -0.067,0 -0.127,0.028 -0.129,0.117 l 0.091,0 c 0,-0.033 0.009,-0.056 0.043,-0.056 0.047,0 0.057,0.05 0.057,0.116 l 0,0.024 -0.002,0 c -0.015,-0.024 -0.045,-0.039 -0.088,-0.039 -0.081,0 -0.112,0.061 -0.112,0.145 0,0.106 0.047,0.165 0.148,0.165 m -2.984,0.003 0.152,0 c 0.132,0 0.157,-0.089 0.157,-0.226 0,-0.164 -0.037,-0.241 -0.162,-0.241 l -0.147,0 0,0.467 z m -8.295,-1.875 -1.197,0 0,0.184 1.197,0 0,-0.184 z m 1.318,0 -1.197,0 0,0.184 1.197,0 0,-0.184 z m 1.307,0 -1.196,0 0,0.184 1.196,0 0,-0.184 z m 1.317,0 -1.197,0 0,0.184 1.197,0 0,-0.184 z m 1.289,0 -1.195,0 0,0.184 1.195,0 0,-0.184 z m 1.317,0 -1.197,0 0,0.184 1.197,0 0,-0.184 z m 1.308,0 -1.198,0 0,0.184 1.198,0 0,-0.184 z m 0.231,1.885 c 0.136,0 0.146,-0.099 0.146,-0.166 l -0.095,0 c 0,0.067 -0.014,0.097 -0.056,0.097 -0.048,0 -0.058,-0.047 -0.058,-0.179 0,-0.142 0.019,-0.167 0.058,-0.167 0.034,0 0.059,0.017 0.059,0.117 l 0.094,0 c 0,-0.1 -0.024,-0.187 -0.148,-0.187 -0.14,0 -0.158,0.101 -0.158,0.243 0,0.143 0.018,0.242 0.158,0.242 m 1.086,-1.885 -1.197,0 0,0.184 1.197,0 0,-0.184 z m 1.287,0 -1.195,0 0,0.184 1.195,0 0,-0.184 z m 1.318,0 -1.197,0 0,0.184 1.197,0 0,-0.184 z m -0.037,1.4 c -0.091,0 -0.135,0.054 -0.135,0.141 l 0,0.004 0.089,0 c 0.001,-0.055 0.012,-0.083 0.052,-0.083 0.047,0 0.051,0.033 0.051,0.074 0,0.041 -0.007,0.078 -0.06,0.078 l -0.031,0 0,0.063 0.029,0 c 0.04,0 0.055,0.034 0.055,0.073 0,0.042 -0.015,0.06 -0.045,0.06 -0.041,0 -0.048,-0.032 -0.048,-0.074 l -0.086,0 c 0,0.09 0.048,0.137 0.135,0.137 0.084,0 0.135,-0.04 0.135,-0.121 0,-0.056 -0.027,-0.092 -0.071,-0.1 l 0,-0.002 c 0.058,-0.009 0.084,-0.05 0.084,-0.109 0,-0.062 -0.027,-0.141 -0.154,-0.141 m 1.344,-1.4 -1.197,0 0,0.184 1.197,0 0,-0.184 z m 1.316,0 -1.195,0 0,0.184 1.195,0 0,-0.184 z m 1.291,0 -1.197,0 0,0.184 1.197,0 0,-0.184 z m 1.316,0 -1.196,0 0,0.184 1.196,0 0,-0.184 z m 1.571,-1.252 c -0.145,0 -0.262,0.117 -0.262,0.264 0,0.144 0.117,0.261 0.262,0.261 0.143,0 0.262,-0.117 0.262,-0.261 0,-0.147 -0.119,-0.264 -0.262,-0.264 m -0.011,1.085 c -0.795,0 -1.439,0.646 -1.439,1.443 0,0.796 0.644,1.441 1.439,1.441 0.797,0 1.442,-0.645 1.442,-1.441 0,-0.797 -0.645,-1.443 -1.442,-1.443" />
          </g>
          <g
             transform="translate(200.6689,76.0693)"
             id="g3750">
            <path
               inkscape:connector-curvature="0"
               id="path3752"
               style="fill:#ffffff;fill-opacity:1;fill-rule:nonzero;stroke:none"
               d="m 0,0 c -0.59,0 -1.064,-0.479 -1.064,-1.066 0,-0.588 0.474,-1.067 1.064,-1.067 0.588,0 1.066,0.479 1.066,1.067 C 1.066,-0.479 0.588,0 0,0" />
          </g>
          <g
             transform="translate(57.127,12.0156)"
             id="g3754">
            <path
               inkscape:connector-curvature="0"
               id="path3756"
               style="fill:#bacf1b;fill-opacity:1;fill-rule:nonzero;stroke:#b6cd1e;stroke-width:0.579;stroke-linecap:butt;stroke-linejoin:miter;stroke-miterlimit:10;stroke-dasharray:none;stroke-opacity:1"
               d="M 0,0 C 26.438,0 47.871,21.433 47.871,47.872 47.871,74.31 26.438,95.742 0,95.742 -26.437,95.742 -47.87,74.31 -47.87,47.872 -47.87,21.433 -26.437,0 0,0" />
          </g>
        </g>
      </g>
      <g
         id="g3758">
        <g
           clip-path="url(#clipPath3762)"
           id="g3760">
          <g
             transform="translate(65.2578,75.0752)"
             id="g3766">
            <path
               inkscape:connector-curvature="0"
               id="path3768"
               style="fill:#ffffff;fill-opacity:1;fill-rule:nonzero;stroke:none"
               d="m 0,0 -2.854,0 c 0.06,-3.371 0.782,-6.752 2.216,-9.923 0.734,-1.624 1.633,-3.137 2.665,-4.538 l 0,12.433 C 2.027,-0.907 1.119,0 0,0" />
          </g>
          <g
             transform="translate(85.5625,49.4209)"
             id="g3770">
            <path
               inkscape:connector-curvature="0"
               id="path3772"
               style="fill:#ffffff;fill-opacity:1;fill-rule:nonzero;stroke:none"
               d="m 0,0 c -9.831,0.086 -18.8,5.922 -22.848,14.869 -4.048,8.95 -2.509,19.537 3.918,26.978 0.755,0.873 0.659,2.194 -0.216,2.949 -0.874,0.755 -2.194,0.659 -2.949,-0.215 -4.62,-5.349 -7.065,-12.095 -7.157,-18.927 l -19.242,0 c -1.12,0 -2.027,-0.909 -2.027,-2.028 l 0,-18.63 -1.893,0 0,11.163 c 0,1.153 -0.936,2.091 -2.091,2.091 l -7.884,0 c -1.156,0 -2.09,-0.938 -2.09,-2.091 l 0,-11.163 -3.478,0 0,11.163 c 0,1.153 -0.936,2.091 -2.091,2.091 l -5.584,0 c -1.154,0 -2.091,-0.938 -2.091,-2.091 0,-1.157 0.937,-2.092 2.091,-2.092 l 3.493,0 0,-11.163 c 0,-1.154 0.937,-2.089 2.091,-2.089 l 7.659,0 c 1.154,0 2.09,0.935 2.09,2.089 l 0,11.163 3.703,0 0,-11.163 c 0,-1.154 0.938,-2.089 2.091,-2.089 l 3.984,0 0,-5.377 c 0,-1.122 0.907,-2.029 2.027,-2.029 l 28.189,0 c 1.118,0 2.028,0.907 2.028,2.029 l 0,6.934 c 5.088,-4.09 11.484,-6.495 18.242,-6.555 l 0.017,0 c 1.149,0 2.082,0.926 2.093,2.074 C 2.084,-0.953 1.156,-0.011 0,0" />
          </g>
          <g
             transform="translate(90.9482,58.2021)"
             id="g3774">
            <path
               inkscape:connector-curvature="0"
               id="path3776"
               style="fill:#ffffff;fill-opacity:1;fill-rule:nonzero;stroke:none"
               d="m 0,0 c -7.357,0.066 -14.067,4.431 -17.098,11.128 -3.029,6.693 -1.878,14.617 2.934,20.185 0.754,0.875 0.658,2.194 -0.217,2.949 -0.873,0.754 -2.193,0.657 -2.949,-0.216 C -23.2,27.25 -24.604,17.577 -20.907,9.404 -17.208,1.228 -9.016,-4.104 -0.036,-4.182 l 0.018,0 c 1.146,0 2.081,0.924 2.09,2.075 C 2.083,-0.954 1.153,-0.01 0,0" />
          </g>
          <g
             transform="translate(94.4063,67.6494)"
             id="g3778">
            <path
               inkscape:connector-curvature="0"
               id="path3780"
               style="fill:#ffffff;fill-opacity:1;fill-rule:nonzero;stroke:none"
               d="m 0,0 c -4.132,0.034 -7.903,2.491 -9.604,6.25 -1.703,3.76 -1.054,8.214 1.646,11.343 0.754,0.872 0.66,2.191 -0.215,2.946 -0.876,0.756 -2.194,0.658 -2.95,-0.215 -3.763,-4.355 -4.662,-10.557 -2.292,-15.799 2.37,-5.238 7.621,-8.658 13.378,-8.707 l 0.019,0 c 1.146,0 2.081,0.924 2.09,2.073 C 2.082,-0.953 1.154,-0.009 0,0" />
          </g>
        </g>
      </g>
      <g
         transform="matrix(1,0,0,-1,40.9009,24.5469)"
         style="font-variant:normal;font-weight:bold;font-stretch:condensed;font-size:16.56800079px;font-family:'HelveticaNeueLT Std Cn';-inkscape-font-specification:HelveticaNeueLTStd-BdCn;writing-mode:lr-tb;fill:#ffffff;fill-opacity:1;fill-rule:nonzero;stroke:none"
         id="text3782">
        <path
           d="m 11.180165,-3.7860471 q 0,1.7797658 -1.5128013,2.89616424 -1.504711,1.10830865 -4.0934611,1.10830865 -1.4966212,0 -2.6130196,-0.25887501 -1.1083087,-0.26696486 -2.07908999,-0.67145706 l 0,-2.88807432 0.33977349,0 q 0.9626914,0.7685352 2.1518985,1.1811172 1.1972969,0.4125821 2.2975157,0.4125821 0.2831446,0 0.7442657,-0.048539 0.4611211,-0.048539 0.7523555,-0.1617969 0.3559531,-0.1456172 0.5824688,-0.364043 0.2346055,-0.2184258 0.2346055,-0.6471875 0,-0.3964024 -0.3397735,-0.6795469 Q 7.3132191,-4.1986291 6.6660316,-4.3523361 5.9864847,-4.514133 5.2260393,-4.6516604 4.4736838,-4.7972776 3.8103166,-5.0157034 2.2894259,-5.5091839 1.6179688,-6.3505276 0.95460161,-7.1999613 0.95460161,-8.4538871 q 0,-1.6826879 1.50471099,-2.7424569 1.5128009,-1.06786 3.8831252,-1.06786 1.1892071,0 2.3460548,0.234606 1.1649376,0.226515 2.0143714,0.574379 l 0,2.7748162 -0.331684,0 Q 9.6430942,-9.2628715 8.5833246,-9.6511841 7.5316449,-10.047586 6.4314261,-10.047586 q -0.3883125,0 -0.776625,0.056629 -0.3802227,0.048539 -0.7361759,0.1941562 -0.3155039,0.1213477 -0.5420195,0.3721329 -0.2265157,0.2426953 -0.2265157,0.5581992 0,0.4773008 0.364043,0.7361758 0.364043,0.2507852 1.3752735,0.4611212 0.6633673,0.1375273 1.2701056,0.2669648 0.6148281,0.1294375 1.3186446,0.3559532 1.3833633,0.4530312 2.0386403,1.2377461 0.663368,0.776625 0.663368,2.022461 z"
           style=""
           id="path3894" />
        <path
           d="m 19.560531,-9.7159028 -3.761778,0 0,9.7159028 -3.1065,0 0,-9.7159028 -3.7617773,0 0,-2.3298752 10.6300553,0 0,2.3298752 z"
           style=""
           id="path3896" />
      </g>
      <g
         transform="matrix(1,0,0,-1,57.452332,24.5469)"
         style="font-variant:normal;font-weight:300;font-stretch:condensed;font-size:16.56800079px;font-family:'HelveticaNeueLT Std Lt Cn';-inkscape-font-specification:HelveticaNeueLTStd-LtCn;writing-mode:lr-tb;fill:#ffffff;fill-opacity:1;fill-rule:nonzero;stroke:none"
         id="text3786">
        <path
           d="m 9.4570278,0 -8.1545629,0 0,-1.6907774 q 0.8494336,-0.728086 1.6988673,-1.456172 0.8575235,-0.7280859 1.5936993,-1.4480821 1.55325,-1.504711 2.127629,-2.386504 0.5743789,-0.8898828 0.5743789,-1.9172931 0,-0.9384219 -0.622918,-1.4642614 -0.6148281,-0.53393 -1.7231368,-0.53393 -0.7361758,0 -1.5936993,0.258875 -0.8575235,0.258875 -1.6745977,0.7928047 l -0.080898,0 0,-1.6988677 q 0.574379,-0.283144 1.5289806,-0.51775 0.9626914,-0.234605 1.8606641,-0.234605 1.8525743,0 2.9042541,0.897973 1.0516797,0.889882 1.0516797,2.418863 0,0.6876368 -0.1779766,1.2862852 -0.1698867,0.5905586 -0.5096601,1.1244884 -0.315504,0.5015703 -0.7442657,0.9869609 -0.4206719,0.4853907 -1.0274102,1.0759493 -0.8656133,0.8494336 -1.7878556,1.6503282 -0.9222422,0.7928047 -1.7231368,1.4723517 l 6.4799652,0 0,1.3833633 z"
           style=""
           id="path3899" />
        <path
           d="m 17.31259,-3.8264963 q 0,0.8413438 -0.307414,1.609879 -0.307414,0.7685352 -0.841344,1.29437507 -0.582469,0.56628909 -1.391453,0.87370317 -0.800895,0.29932423 -1.860664,0.29932423 -0.986961,0 -1.901114,-0.21033595 -0.914152,-0.2022461 -1.5451601,-0.49348049 l 0,-1.70695713 0.1132578,0 q 0.6633673,0.4206719 1.5532503,0.7199961 0.889883,0.2912344 1.747406,0.2912344 0.574379,0 1.108309,-0.1617969 0.542019,-0.1617968 0.962691,-0.566289 0.355953,-0.3478633 0.53393,-0.833254 0.186066,-0.4853906 0.186066,-1.1244883 0,-0.622918 -0.218425,-1.0516798 -0.210336,-0.4287617 -0.590559,-0.6876367 -0.420672,-0.3074141 -1.02741,-0.4287617 -0.598649,-0.1294376 -1.342914,-0.1294376 -0.711907,0 -1.375274,0.097078 -0.655277,0.097078 -1.1325781,0.1941562 l 0,-6.2049105 7.2485001,0 0,1.415723 -5.68716,0 0,3.2035781 q 0.347863,-0.032359 0.711906,-0.048539 0.364043,-0.01618 0.631008,-0.01618 0.978871,0 1.715047,0.1698868 0.736176,0.1617968 1.351004,0.5824687 0.647187,0.4449415 1.003141,1.1487579 0.355953,0.7038164 0.355953,1.763586 z"
           style=""
           id="path3901" />
      </g>
    </g>
  </g>
</svg>
