<?xml version="1.0" encoding="UTF-8" standalone="no"?>
<svg
   xmlns:dc="http://purl.org/dc/elements/1.1/"
   xmlns:cc="http://creativecommons.org/ns#"
   xmlns:rdf="http://www.w3.org/1999/02/22-rdf-syntax-ns#"
   xmlns:svg="http://www.w3.org/2000/svg"
   xmlns="http://www.w3.org/2000/svg"
   version="1.1"
   id="svg2"
   viewBox="0 0 60 60"
   height="48pt"
   width="48pt">
  <defs
     id="defs4">
    <clipPath
       clipPathUnits="userSpaceOnUse"
       id="clipPath3362">
      <path
         d="M 0,200 200,200 200,0 0,0 0,200 Z"
         id="path3364" />
    </clipPath>
  </defs>
  <metadata
     id="metadata7">
    <rdf:RDF>
      <cc:Work
         rdf:about="">
        <dc:format>image/svg+xml</dc:format>
        <dc:type
           rdf:resource="http://purl.org/dc/dcmitype/StillImage" />
        <dc:title></dc:title>
      </cc:Work>
    </rdf:RDF>
  </metadata>
  <g
     transform="translate(0,-992.36222)"
     id="layer1">
    <g
       style="fill:#39a9dc;fill-opacity:1"
       id="g3344"
       transform="matrix(0.25,0,0,-0.25,5,1047.3622)">
      <g
         style="fill:#39a9dc;fill-opacity:1"
         id="g3346"
         transform="translate(116,101.8184)">
        <path
           d="M 0,0 5,0 5,66.61 10.256,64.287 2.361,76.713 -5.474,64.287 0,66.61 0,0 Z"
           style="fill:#39a9dc;fill-opacity:1;fill-rule:nonzero;stroke:none"
           id="path3348" />
      </g>
      <g
         style="fill:#39a9dc;fill-opacity:1"
         id="g3350"
         transform="translate(152.7051,33.749)">
        <path
           d="m 0,0 -17.39,31.069 -4.668,0 L -3.96,-1.066 -8.773,-1.505 4.659,-11.459 3.131,2.002 0,0 Z"
           style="fill:#39a9dc;fill-opacity:1;fill-rule:nonzero;stroke:none"
           id="path3352" />
      </g>
      <g
         style="fill:#39a9dc;fill-opacity:1"
         id="g3354"
         transform="translate(0,88.5447)">
        <path
           d="M 0,0 13.539,-5.457 10.717,-1.068 63.271,-1 61.235,2.245 9.575,2.153 9.913,5.488 0,0 Z"
           style="fill:#39a9dc;fill-opacity:1;fill-rule:nonzero;stroke:none"
           id="path3356" />
      </g>
      <g
         style="fill:#39a9dc;fill-opacity:1"
         id="g3358">
        <g
           style="fill:#39a9dc;fill-opacity:1"
           id="g3360"
           clip-path="url(#clipPath3362)">
          <g
             style="fill:#39a9dc;fill-opacity:1"
             id="g3366"
             transform="translate(200,76.8184)">
            <path
               d="M 0,0 C -3.558,3 -55.277,45 -59.679,47 L -77,47 l 0,-25 -10,0 0,25 -61.753,0 c 3.888,-5 23.558,-37 29.839,-47 L 0,0 Z"
               style="fill:#39a9dc;fill-opacity:1;fill-rule:nonzero;stroke:none"
               id="path3368" />
          </g>
          <g
             style="fill:#39a9dc;fill-opacity:1"
             id="g3370"
             transform="translate(50.4404,99.9043)">
            <path
               d="m 0,0 c 1.205,-2.043 2.43,-4.121 3.654,-6.199 l 8.252,-0.05 5.544,-8.837 -8.607,0 c 1.569,-4 3.277,-5.298 4.875,-8.013 4.772,-8.099 9.842,-16.383 14.842,-24.934 l 0,10.201 0,10.637 c -5,8.609 -10.479,16.984 -15.435,25.123 C 8.3,5.844 3.541,13.557 -1.029,21.062 -0.84,17.434 -0.688,13.858 -0.505,10.33 -0.32,6.844 -0.176,3.396 0,0"
               style="fill:#39a9dc;fill-opacity:1;fill-rule:nonzero;stroke:none"
               id="path3372" />
          </g>
          <g
             style="fill:#39a9dc;fill-opacity:1"
             id="g3374"
             transform="translate(81,51.8184)">
            <path
               d="m 0,0 53.228,0 -7.856,13 1.732,0 8.382,0 1.494,0 L 65.576,0 119,0 119,21 0,21 0,0 Z"
               style="fill:#39a9dc;fill-opacity:1;fill-rule:nonzero;stroke:none"
               id="path3376" />
          </g>
          <g
             style="fill:#39a9dc;fill-opacity:1"
             id="g3378"
             transform="translate(55.9229,63.5742)">
            <path
               d="m 0,0 c -0.026,0.039 -0.058,0.086 -0.086,0.125 -0.81,1.092 -2.354,1.322 -3.447,0.512 -1.094,-0.811 -1.324,-2.352 -0.513,-3.448 l 21.369,-28.837 0.448,-0.604 0.666,0.022 44.065,1.355 -43.313,1.334 L 0,0 Z"
               style="fill:#39a9dc;fill-opacity:1;fill-rule:nonzero;stroke:none"
               id="path3380" />
          </g>
          <g
             style="fill:#39a9dc;fill-opacity:1"
             id="g3382"
             transform="translate(48.5332,53.7207)">
            <path
               d="m 0,0 c -0.026,0.041 -0.059,0.088 -0.086,0.125 -0.81,1.092 -2.354,1.322 -3.447,0.514 -1.094,-0.811 -1.323,-2.354 -0.513,-3.448 l 21.369,-28.839 0.447,-0.604 0.667,0.022 44.066,1.357 -43.314,1.332 L 0,0 Z"
               style="fill:#39a9dc;fill-opacity:1;fill-rule:nonzero;stroke:none"
               id="path3384" />
          </g>
          <g
             style="fill:#39a9dc;fill-opacity:1"
             id="g3386"
             transform="translate(130.7402,136.1528)">
            <path
               d="M 0,0 14.221,0.659 44.181,-22.05 15.917,3.828 15.503,4.207 14.778,4.241 0,4.926 C -0.074,4.93 -0.154,4.93 -0.229,4.926 -1.59,4.862 -2.642,3.708 -2.578,2.349 -2.514,0.988 -1.361,-0.064 0,0"
               style="fill:#39a9dc;fill-opacity:1;fill-rule:nonzero;stroke:none"
               id="path3388" />
          </g>
          <g
             style="fill:#39a9dc;fill-opacity:1"
             id="g3390"
             transform="translate(135.666,146.0054)">
            <path
               d="M 0,0 14.221,0.658 44.182,-22.048 15.918,3.828 15.503,4.207 14.779,4.241 0,4.927 C -0.074,4.93 -0.153,4.93 -0.228,4.927 -1.59,4.862 -2.641,3.709 -2.578,2.349 -2.513,0.989 -1.36,-0.064 0,0"
               style="fill:#39a9dc;fill-opacity:1;fill-rule:nonzero;stroke:none"
               id="path3392" />
          </g>
        </g>
      </g>
    </g>
  </g>
</svg>
